<svg width="226" height="216" viewBox="0 0 226 216" fill="none" xmlns="http://www.w3.org/2000/svg">
    <path d="M204.589 208.704H114.324V204.086C114.324 196.515 120.745 190.379 128.666 190.379H190.248C198.168 190.379 204.589 196.515 204.589 204.086V208.704Z" fill="#084C61"/>
    <path d="M204.589 210.393H114.324C113.35 210.393 112.559 209.637 112.559 208.705V204.086C112.559 195.597 119.784 188.691 128.666 188.691H190.248C199.13 188.691 206.355 195.597 206.355 204.086V208.705C206.355 209.637 205.565 210.393 204.589 210.393ZM116.09 207.018H202.824V204.086C202.824 197.459 197.183 192.066 190.249 192.066H128.666C121.732 192.066 116.091 197.459 116.091 204.086V207.018H116.09Z" fill="#177E89"/>
    <path d="M95.6942 86.2078L52.477 31.0966C51.6471 30.0377 51.867 28.5333 52.9687 27.7351L60.8416 22.0339C77.7802 9.76829 101.859 13.0201 114.623 29.2977C127.388 45.5754 124.003 68.7135 107.065 80.9799L99.1919 86.6812C98.0902 87.4777 96.5241 87.2667 95.6942 86.2078Z" fill="#084C61"/>
    <path d="M59.2208 39.696C51.5536 48.201 50.8191 60.9746 58.1509 70.325C65.4826 79.6754 78.4626 82.5172 89.0846 77.7787L59.2208 39.696Z" fill="#FFC857"/>
    <path d="M26.7775 92.049C25.6298 92.049 24.5042 91.5157 23.8254 90.5311C22.7519 88.9743 23.2021 86.8818 24.8309 85.8558L45.5231 72.8199C47.1502 71.7939 49.3413 72.2234 50.4148 73.7809C51.4883 75.3377 51.0381 77.4302 49.4093 78.4562L28.717 91.4921C28.1185 91.8693 27.444 92.049 26.7775 92.049Z" fill="#FFC857"/>
    <path d="M53.7995 112.568C53.464 112.568 53.1223 112.522 52.7842 112.425C50.9162 111.89 49.8559 110.008 50.4156 108.224L57.5558 85.4617C58.1164 83.6764 60.0833 82.6613 61.9522 83.198C63.8203 83.7329 64.8805 85.6145 64.3208 87.399L57.1806 110.161C56.7225 111.624 55.3188 112.568 53.7995 112.568Z" fill="#FFC857"/>
    <path d="M42.5515 62.8325C42.4129 62.8325 42.2726 62.8249 42.1304 62.8088L17.5688 60.0203C15.6319 59.8009 14.2486 58.1218 14.479 56.2715C14.7094 54.422 16.4671 53.0905 18.4022 53.3184L42.9638 56.1069C44.9007 56.3263 46.2841 58.0054 46.0537 59.8557C45.84 61.5702 44.3154 62.8325 42.5515 62.8325Z" fill="#FFC857"/>
    <path d="M134.426 15.0914C127.656 6.45727 114.883 4.73264 105.898 11.2388L97.8138 17.0927C104.277 19.4898 110.147 23.5896 114.623 29.2976C119.157 35.079 121.643 41.7252 122.218 48.4423L130.416 42.5056C139.401 35.9986 141.197 23.7255 134.426 15.0914Z" fill="#084C61"/>
    <path d="M196.291 126.086C204.716 126.086 211.547 119.522 211.547 111.426C211.547 103.329 204.716 96.7656 196.291 96.7656C187.865 96.7656 181.035 103.329 181.035 111.426C181.035 119.522 187.865 126.086 196.291 126.086Z" fill="#084C61"/>
    <path d="M196.291 119.55C200.96 119.55 204.745 115.913 204.745 111.426C204.745 106.939 200.96 103.301 196.291 103.301C191.621 103.301 187.836 106.939 187.836 111.426C187.836 115.913 191.621 119.55 196.291 119.55Z" fill="#DB3A34"/>
    <path d="M97.6982 88.8521C97.4996 88.8521 97.2992 88.8386 97.0988 88.8116C95.9688 88.6598 94.9677 88.0944 94.2817 87.2195L51.0645 32.1083C49.6556 30.3111 50.0316 27.7461 51.9023 26.391L59.7752 20.6898C68.3368 14.4899 78.9023 11.8608 89.5145 13.2876C100.153 14.716 109.572 20.0435 116.036 28.2861C129.36 45.2775 125.815 69.5193 108.131 82.324L100.258 88.0253C99.5106 88.5669 98.619 88.8521 97.6982 88.8521ZM83.8778 16.2837C75.9793 16.2837 68.327 18.7306 61.9081 23.3788L54.0343 29.08C53.7068 29.3171 53.6423 29.7677 53.8895 30.0841L97.1067 85.1953C97.2656 85.3987 97.4766 85.4543 97.5887 85.4687C97.6973 85.4813 97.9154 85.4856 98.1246 85.3345L105.998 79.6333C122.137 67.9457 125.373 45.8192 113.209 30.3085C107.313 22.7899 98.7232 17.9307 89.0219 16.628C87.304 16.3985 85.5851 16.2837 83.8778 16.2837Z" fill="#177E89"/>
    <path d="M78.5077 81.7029C70.1668 81.7029 61.9823 78.0242 56.7384 71.3366C49.0906 61.5845 49.5717 47.8145 57.8834 38.594C58.2321 38.2068 58.7494 37.9773 59.2809 38.0093C59.815 38.027 60.3129 38.2743 60.6342 38.6843L90.498 76.7678C90.8167 77.1737 90.9271 77.6968 90.7973 78.1904C90.6684 78.6831 90.3135 79.094 89.8315 79.3092C86.204 80.9258 82.3391 81.7029 78.5077 81.7029ZM59.1899 42.4702C53.2972 50.4251 53.351 61.3905 59.5643 69.3124C65.7749 77.2327 76.727 80.3014 86.3047 77.0471L59.1899 42.4702Z" fill="#177E89"/>
    <path d="M122.218 50.129C121.974 50.129 121.728 50.0801 121.498 49.9822C120.909 49.7307 120.511 49.1924 120.459 48.579C119.89 41.9488 117.384 35.6308 113.21 30.3093C109.09 25.0544 103.545 21.0281 97.1747 18.6656C96.5779 18.4445 96.1533 17.9323 96.065 17.3265C95.9759 16.7207 96.2372 16.1166 96.7465 15.7479L104.83 9.89392C109.549 6.47674 115.372 5.03223 121.222 5.81439C127.085 6.60245 132.275 9.53702 135.837 14.0798C143.178 23.4412 141.223 36.7961 131.482 43.8498L123.284 49.7864C122.972 50.0126 122.597 50.129 122.218 50.129ZM101.289 16.6937C107.085 19.3524 112.142 23.3188 116.036 28.2851C119.979 33.3131 122.564 39.1527 123.601 45.323L129.35 41.1591C137.548 35.2225 139.191 23.982 133.012 16.1022C130.019 12.2851 125.657 9.81714 120.731 9.15564C115.82 8.49836 110.928 9.71252 106.963 12.583L101.289 16.6937Z" fill="#177E89"/>
    <path d="M196.291 127.774C186.905 127.774 179.269 120.441 179.269 111.427C179.269 102.412 186.905 95.0781 196.291 95.0781C205.677 95.0781 213.312 102.412 213.312 111.427C213.312 120.441 205.677 127.774 196.291 127.774ZM196.291 98.4531C188.852 98.4531 182.8 104.272 182.8 111.427C182.8 118.58 188.852 124.399 196.291 124.399C203.729 124.399 209.781 118.58 209.781 111.427C209.781 104.272 203.729 98.4531 196.291 98.4531Z" fill="#177E89"/>
    <path d="M196.291 126.087C191.379 126.087 187.02 123.847 184.23 120.381L150.263 190.379H165.693L196.906 126.057C196.7 126.065 196.498 126.087 196.291 126.087Z" fill="#177E89" fill-opacity="0.5"/>
    <path d="M165.693 192.066H150.263C149.66 192.066 149.099 191.772 148.774 191.287C148.449 190.802 148.407 190.192 148.66 189.668L182.627 119.671C182.887 119.136 183.42 118.77 184.034 118.704C184.645 118.63 185.251 118.884 185.628 119.352C188.211 122.559 192.097 124.398 196.29 124.398C196.378 124.398 196.465 124.392 196.552 124.386L196.831 124.37C197.461 124.358 198.031 124.629 198.373 125.118C198.716 125.607 198.766 126.232 198.507 126.766L167.295 191.088C167.006 191.685 166.381 192.066 165.693 192.066ZM153.028 188.691H164.566L194.186 127.65C190.626 127.23 187.331 125.748 184.713 123.397L153.028 188.691Z" fill="#177E89"/>
    <path d="M193.248 97.0584L137.45 33.157C136.183 36.759 133.815 40.0445 130.417 42.5049L128.542 43.8625L182.35 105.486C184.326 101.211 188.359 98.0101 193.248 97.0584Z" fill="#177E89" fill-opacity="0.5"/>
    <path d="M182.35 107.173C181.831 107.173 181.332 106.954 180.994 106.567L127.186 44.9442C126.877 44.5898 126.733 44.13 126.787 43.6718C126.842 43.2137 127.091 42.7969 127.475 42.5184L129.35 41.1608C132.353 38.9865 134.574 36.0334 135.776 32.6196C135.979 32.0399 136.494 31.6121 137.123 31.4991C137.752 31.3894 138.394 31.6079 138.805 32.077L194.603 95.9784C195.001 96.4341 195.118 97.0567 194.914 97.6178C194.708 98.1781 194.209 98.5941 193.6 98.713C189.342 99.5416 185.741 102.329 183.966 106.168C183.719 106.703 183.201 107.075 182.597 107.157C182.514 107.167 182.431 107.173 182.35 107.173ZM131.083 44.1393L182.04 102.497C183.996 99.6209 186.847 97.4018 190.171 96.1691L137.962 36.3776C136.444 39.3046 134.24 41.8527 131.483 43.849L131.083 44.1393Z" fill="#177E89"/>
</svg>
