<svg width="275" height="277" viewBox="0 0 275 277" fill="none" xmlns="http://www.w3.org/2000/svg">
    <path d="M137.5 274.551C212.135 274.551 272.638 213.623 272.638 138.465C272.638 63.3064 212.135 2.37866 137.5 2.37866C62.8654 2.37866 2.36212 63.3064 2.36212 138.465C2.36212 213.623 62.8654 274.551 137.5 274.551Z" fill="#FFC857"/>
    <path d="M137.5 249.638C198.472 249.638 247.899 199.864 247.899 138.464C247.899 77.0648 198.472 27.2905 137.5 27.2905C76.5278 27.2905 27.1003 77.0648 27.1003 138.464C27.1003 199.864 76.5278 249.638 137.5 249.638Z" fill="#084C61"/>
    <path d="M137.5 172.998C118.177 172.998 102.457 157.166 102.457 137.707C102.457 118.249 118.177 102.417 137.5 102.417C156.823 102.417 172.543 118.247 172.543 137.706C172.543 157.165 156.823 172.998 137.5 172.998Z" fill="#F9CFCF"/>
    <path d="M137.5 153.851C146.354 153.851 153.533 146.623 153.533 137.706C153.533 128.789 146.354 121.561 137.5 121.561C128.645 121.561 121.467 128.789 121.467 137.706C121.467 146.623 128.645 153.851 137.5 153.851Z" fill="#DB3A34"/>
    <path d="M145.902 75.4224L137.505 62.1339V62.1184L137.5 62.1267L137.495 62.1196V62.1351L129.098 75.4236C128.572 76.2538 129.165 77.342 130.144 77.342H133.78V137.708C133.78 139.778 135.445 141.455 137.5 141.455C139.555 141.455 141.22 139.778 141.22 137.708V77.3408H144.856C145.835 77.3408 146.428 76.2538 145.902 75.4224Z" fill="#177E89"/>
    <path d="M27.2173 143.46H51.8364C54.5753 143.46 56.7969 141.223 56.7969 138.464C56.7969 135.706 54.5753 133.469 51.8364 133.469H27.2173C27.144 135.125 27.1003 136.79 27.1003 138.464C27.1003 140.139 27.144 141.804 27.2173 143.46Z" fill="#DB3A34"/>
    <path d="M137.5 219.733C134.761 219.733 132.539 221.97 132.539 224.728V249.52C134.185 249.595 135.837 249.638 137.5 249.638C139.163 249.638 140.815 249.594 142.46 249.52V224.728C142.46 221.97 140.239 219.733 137.5 219.733Z" fill="#DB3A34"/>
    <path d="M214.531 183.251C215.899 180.862 218.935 180.042 221.307 181.423L235.476 189.659C233.944 192.622 232.288 195.507 230.507 198.306L216.347 190.073C213.974 188.696 213.161 185.639 214.531 183.251Z" fill="#E0EBFC"/>
    <path d="M181.974 216.036C184.344 214.655 187.382 215.475 188.75 217.864L196.925 232.123C194.146 233.917 191.279 235.584 188.339 237.128L180.159 222.86C178.789 220.47 179.601 217.416 181.974 216.036Z" fill="#E0EBFC"/>
    <path d="M89.0343 219.617C90.3181 217.181 93.325 216.256 95.7427 217.552C98.1615 218.846 99.0803 221.872 97.793 224.308L90.109 238.862C87.115 237.423 84.1978 235.849 81.3597 234.154L89.0343 219.617Z" fill="#E0EBFC"/>
    <path d="M53.6932 181.423C56.0636 180.042 59.1013 180.862 60.469 183.251C61.839 185.639 61.0264 188.695 58.6537 190.073L44.494 198.306C42.7118 195.507 41.0571 192.622 39.5253 189.659L53.6932 181.423Z" fill="#E0EBFC"/>
    <path d="M218.203 138.464C218.203 141.223 220.425 143.46 223.163 143.46H247.783C247.856 141.804 247.899 140.139 247.899 138.464C247.899 136.79 247.856 135.125 247.783 133.469H223.163C220.425 133.469 218.203 135.706 218.203 138.464Z" fill="#DB3A34"/>
    <path d="M58.6537 86.8567L44.494 78.624C42.7129 81.4226 41.0571 84.3079 39.5253 87.2694L53.6944 95.508C54.8802 96.1978 56.2325 96.3382 57.4585 96.0075C58.6844 95.6769 59.7863 94.8741 60.4702 93.68C61.839 91.2906 61.0264 88.2339 58.6537 86.8567Z" fill="#E0EBFC"/>
    <path d="M89.0342 57.3107C89.6767 58.5286 90.7491 59.3695 91.9632 59.7441C93.1773 60.1176 94.5332 60.0248 95.7414 59.3766C98.1602 58.0826 99.0791 55.0569 97.7917 52.6211L90.1078 38.0671C87.1138 39.5062 84.1965 41.0797 81.3585 42.7746L89.0342 57.3107Z" fill="#E0EBFC"/>
    <path d="M221.307 95.5062L235.476 87.2677C233.944 84.3062 232.288 81.4208 230.507 78.6223L216.347 86.855C213.975 88.2334 213.161 91.2888 214.532 93.677C215.216 94.8723 216.318 95.6751 217.544 96.0046C218.768 96.3364 220.121 96.1961 221.307 95.5062Z" fill="#E0EBFC"/>
    <path d="M188.339 39.8018L180.159 54.0703C178.789 56.4597 179.601 59.514 181.974 60.8936C183.16 61.5834 184.512 61.7238 185.738 61.3919C186.964 61.0613 188.066 60.2585 188.75 59.0656L196.925 44.8065C194.146 43.0118 191.279 41.3455 188.339 39.8018Z" fill="#E0EBFC"/>
    <path d="M137.5 27.2888C135.837 27.2888 134.185 27.3328 132.539 27.4066V52.1984C132.539 54.9565 134.761 57.1937 137.5 57.1937C140.239 57.1937 142.46 54.9565 142.46 52.1984V27.4078C140.815 27.3328 139.163 27.2888 137.5 27.2888Z" fill="#DB3A34"/>
    <path d="M223.123 138.461H223.108L211.596 132.661C209.947 131.83 208.005 133.037 208.005 134.894V135.965H137.5C136.13 135.965 135.02 137.083 135.02 138.463C135.02 139.843 136.13 140.961 137.5 140.961H208.005V142.032C208.005 143.889 209.946 145.097 211.596 144.266L223.108 138.466H223.123L223.116 138.464L223.123 138.461Z" fill="#FFC857"/>
    <path d="M137.5 276.929C61.6831 276.929 0 214.813 0 138.465C0 62.1159 61.6831 0 137.5 0C213.317 0 275 62.1159 275 138.465C275 214.813 213.317 276.929 137.5 276.929ZM137.5 4.75738C64.2874 4.75738 4.72423 64.7384 4.72423 138.465C4.72423 212.191 64.2874 272.172 137.5 272.172C210.713 272.172 270.276 212.191 270.276 138.465C270.276 64.7384 210.713 4.75738 137.5 4.75738Z" fill="#177E89"/>
    <path d="M137.5 252.018C75.3221 252.018 24.7374 201.078 24.7374 138.464C24.7374 75.8497 75.3221 24.9102 137.5 24.9102C199.678 24.9102 250.263 75.8497 250.263 138.464C250.263 201.078 199.678 252.018 137.5 252.018ZM137.5 29.6675C77.9287 29.6675 29.4617 78.4734 29.4617 138.464C29.4617 198.454 77.9287 247.26 137.5 247.26C197.071 247.26 245.539 198.454 245.539 138.464C245.539 78.4734 197.071 29.6675 137.5 29.6675Z" fill="#177E89"/>
</svg>
