<svg width="36" height="34" viewBox="0 0 36 34" fill="none" xmlns="http://www.w3.org/2000/svg">
<path d="M24.978 5.42397C24.9473 5.50778 24.9212 5.59065 24.8971 5.673C24.7441 5.6637 24.5903 5.65732 24.4348 5.65732C21.5818 5.65732 19.1241 7.25014 18.0001 9.54488C16.876 7.25014 14.4183 5.65732 11.5653 5.65732C11.4098 5.65732 11.256 5.6637 11.103 5.673C11.0791 5.59065 11.0528 5.50778 11.0221 5.42397C9.37651 0.930526 4.47742 1.34025 4.47742 1.34025V10.9055V12.3513V22.618C4.47742 28.1677 9.24109 32.6667 15.1172 32.6667H16.7503H19.2499H20.8829C26.759 32.6667 31.5227 28.1679 31.5227 22.618V12.3513V10.9057V1.34039C31.5227 1.34039 26.6235 0.930526 24.978 5.42397Z" fill="#084C61" fill-opacity="0.5"/>
<path d="M22.5663 7.55188C20.5417 7.55188 18.7977 8.68225 18 10.3107C17.2024 8.68225 15.4584 7.55188 13.4338 7.55188C10.6559 7.55188 8.40405 9.67874 8.40405 12.3022C8.40405 14.9258 10.656 17.0525 13.4338 17.0525C15.4584 17.0525 17.2024 15.9221 18 14.2937C18.7977 15.9221 20.5417 17.0525 22.5663 17.0525C25.3442 17.0525 27.596 14.9256 27.596 12.3022C27.596 9.67861 25.3442 7.55188 22.5663 7.55188Z" fill="#EAEAEA"/>
<path d="M17.2123 32.6666H15.1172C9.24151 32.6666 4.47742 28.1673 4.47742 22.6178V1.34007C4.47742 1.34007 5.3964 1.26357 6.57245 1.54194V22.6181C6.57259 28.1673 11.3365 32.6666 17.2123 32.6666Z" fill="#084C61" fill-opacity="0.5"/>
<path d="M14.4805 16.9498C14.1439 17.0171 13.7934 17.0527 13.4344 17.0527C10.6565 17.0527 8.40369 14.9264 8.40369 12.3027C8.40369 9.67911 10.6565 7.55145 13.4344 7.55145C13.7933 7.55145 14.1439 7.58705 14.4805 7.65438C12.2053 8.11073 10.4986 10.0182 10.4986 12.3028C10.4986 14.5875 12.2053 16.4933 14.4805 16.9498Z" fill="#EAEAEA"/>
<path d="M31.5226 1.33995V22.6178C31.5226 28.1671 26.7586 32.6666 20.8828 32.6666H18.7877C24.6635 32.6666 29.4275 28.1673 29.4275 22.6178V1.54169C30.6036 1.26345 31.5226 1.33995 31.5226 1.33995Z" fill="#084C61" fill-opacity="0.5"/>
<path d="M27.5966 12.3027C27.5966 14.9263 25.3438 17.0527 22.5659 17.0527C22.207 17.0527 21.8564 17.0171 21.5198 16.9498C23.7949 16.4935 25.5017 14.5873 25.5017 12.3027C25.5017 10.0181 23.7949 8.11074 21.5198 7.65426C21.8564 7.58692 22.2069 7.55133 22.5659 7.55133C25.3438 7.55146 27.5966 9.67912 27.5966 12.3027Z" fill="#EAEAEA"/>
<path d="M31.5723 0.811101C31.5195 0.806586 26.3065 0.427672 24.4931 5.12618C21.9007 5.10055 19.4225 6.36147 18.0001 8.4453C16.5817 6.36744 14.1066 5.10028 11.5071 5.12618C9.69362 0.427406 4.48107 0.806586 4.42778 0.811101C4.13753 0.835406 3.91492 1.06504 3.91492 1.34023C3.91492 2.86916 3.91492 11.2271 3.91492 12.3512V22.618C3.91492 28.4518 8.94029 33.198 15.1172 33.198H20.8829C27.06 33.198 32.0852 28.4518 32.0852 22.618V12.3513C32.0852 11.2263 32.0852 2.8689 32.0852 1.34036C32.0852 1.06517 31.8626 0.835406 31.5723 0.811101ZM24.8609 6.20316C25.3782 6.23224 25.4537 5.75027 25.5094 5.59806C25.5094 5.59793 25.5096 5.5978 25.5096 5.59766C26.7028 2.33898 29.7403 1.90282 30.9602 1.86311C30.9602 4.83067 30.9602 9.29357 30.9602 12.3513C30.9602 15.7495 28.0329 18.5142 24.4348 18.5142C22.919 18.5142 21.478 18.011 20.3365 17.1413C21.029 17.4271 21.786 17.5837 22.5664 17.5837C25.6501 17.5837 28.1587 15.2145 28.1587 12.3022C28.1587 9.38986 25.6499 7.02048 22.5664 7.02048C21.8949 7.02048 21.241 7.13656 20.6304 7.35052C21.8411 6.52961 23.3178 6.10899 24.8609 6.20316ZM17.4896 10.5336C17.6904 10.9436 18.3096 10.9439 18.5107 10.5336C19.2398 9.04508 20.8318 8.08312 22.5664 8.08312C25.0298 8.08312 27.0337 9.97583 27.0337 12.3023C27.0337 14.6288 25.0298 16.5214 22.5664 16.5214C20.8318 16.5214 19.2398 15.5595 18.5105 14.0708C18.3097 13.6607 17.6904 13.6606 17.4896 14.0708C16.7604 15.5594 15.1684 16.5214 13.4338 16.5214C10.9705 16.5214 8.96659 14.6288 8.96659 12.3023C8.96659 9.97583 10.9705 8.08298 13.4338 8.08298C15.1684 8.08298 16.7604 9.04494 17.4896 10.5336ZM5.03992 1.86736C7.84173 1.97998 9.90906 3.57573 10.5606 5.81375C10.6313 6.05666 10.8736 6.21843 11.1392 6.20316C12.7179 6.10687 14.1894 6.55019 15.3699 7.35079C14.7594 7.13669 14.1053 7.02062 13.4338 7.02062C10.3502 7.02062 7.84159 9.38999 7.84159 12.3023C7.84159 15.2146 10.3502 17.5839 13.4338 17.5839C14.2144 17.5839 14.9713 17.4271 15.6637 17.1415C14.5223 18.0111 13.0813 18.5143 11.5653 18.5143C7.96731 18.5143 5.03992 15.7497 5.03992 12.3514C5.03992 9.29264 5.03992 4.82735 5.03992 1.86736ZM30.9602 22.618C30.9602 27.8659 26.4395 32.1355 20.8829 32.1355H15.1172C9.56059 32.1355 5.03992 27.8659 5.03992 22.618V16.1185C6.38626 18.1911 8.8074 19.5767 11.5653 19.5767C14.1798 19.5767 16.6051 18.3009 18.0001 16.2573C19.3951 18.3009 21.8203 19.5767 24.4348 19.5767C27.1927 19.5767 29.6138 18.1911 30.9602 16.1184V22.618Z" fill="#084C61"/>
<path d="M14.9716 12.8366C15.2842 12.124 14.9259 11.307 14.1714 11.0119C13.4169 10.7167 12.5519 11.0551 12.2393 11.7677C11.9268 12.4803 12.2851 13.2972 13.0396 13.5924C13.7941 13.8875 14.6591 13.5492 14.9716 12.8366Z" fill="#084C61"/>
<path d="M22.3952 13.6987C23.2118 13.6987 23.8739 13.0734 23.8739 12.3022C23.8739 11.5309 23.2118 10.9056 22.3952 10.9056C21.5785 10.9056 20.9165 11.5309 20.9165 12.3022C20.9165 13.0734 21.5785 13.6987 22.3952 13.6987Z" fill="#084C61"/>
<path d="M13.2088 21.4685C13.2088 21.1751 12.957 20.9373 12.6463 20.9373C12.3357 20.9373 12.0838 21.1751 12.0838 21.4685C12.0838 22.2574 11.4042 22.8992 10.569 22.8992C9.73384 22.8992 9.0542 22.2573 9.0542 21.4685C9.0542 21.1751 8.80234 20.9373 8.4917 20.9373C8.18106 20.9373 7.9292 21.1751 7.9292 21.4685C7.9292 22.8432 9.1134 23.9617 10.569 23.9617C12.0246 23.9617 13.2088 22.8432 13.2088 21.4685Z" fill="#084C61"/>
<path d="M20.6399 21.4685C20.6399 21.1751 20.388 20.9373 20.0774 20.9373C19.7667 20.9373 19.5149 21.1751 19.5149 21.4685C19.5149 22.2574 18.8354 22.8992 18 22.8992C17.1647 22.8992 16.4852 22.2573 16.4852 21.4685C16.4852 21.1751 16.2334 20.9373 15.9227 20.9373C15.6121 20.9373 15.3602 21.1751 15.3602 21.4685C15.3602 22.8432 16.5444 23.9617 18 23.9617C19.4558 23.9617 20.6399 22.8432 20.6399 21.4685Z" fill="#084C61"/>
<path d="M27.5085 20.9373C27.1979 20.9373 26.946 21.1751 26.946 21.4685C26.946 22.2574 26.2665 22.8992 25.4312 22.8992C24.5959 22.8992 23.9164 22.2573 23.9164 21.4685C23.9164 21.1751 23.6645 20.9373 23.3539 20.9373C23.0432 20.9373 22.7914 21.1751 22.7914 21.4685C22.7914 22.8432 23.9756 23.9617 25.4312 23.9617C26.8868 23.9617 28.071 22.8432 28.071 21.4685C28.071 21.1751 27.8191 20.9373 27.5085 20.9373Z" fill="#084C61"/>
<path d="M16.3619 26.5071C16.0513 26.5071 15.7994 26.745 15.7994 27.0384C15.7994 27.8273 15.1198 28.469 14.2846 28.469C13.4494 28.469 12.7698 27.8272 12.7698 27.0384C12.7698 26.745 12.5179 26.5071 12.2073 26.5071C11.8966 26.5071 11.6448 26.745 11.6448 27.0384C11.6448 28.4131 12.829 29.5315 14.2846 29.5315C15.7402 29.5315 16.9244 28.4131 16.9244 27.0384C16.9244 26.745 16.6725 26.5071 16.3619 26.5071Z" fill="#084C61"/>
<path d="M23.7929 26.5071C23.4823 26.5071 23.2304 26.745 23.2304 27.0384C23.2304 27.8273 22.5509 28.469 21.7156 28.469C20.8803 28.469 20.2008 27.8272 20.2008 27.0384C20.2008 26.745 19.9489 26.5071 19.6383 26.5071C19.3277 26.5071 19.0758 26.745 19.0758 27.0384C19.0758 28.4131 20.26 29.5315 21.7156 29.5315C23.1712 29.5315 24.3554 28.4131 24.3554 27.0384C24.3554 26.745 24.1036 26.5071 23.7929 26.5071Z" fill="#084C61"/>
</svg>
