<svg width="73" height="69" viewBox="0 0 73 69" fill="none" xmlns="http://www.w3.org/2000/svg">
    <path d="M50.6497 11.0073C50.5876 11.1774 50.5345 11.3455 50.4858 11.5127C50.1755 11.4938 49.8636 11.4808 49.5482 11.4808C43.7629 11.4808 38.7793 14.7133 36.5 19.3703C34.2207 14.7133 29.2371 11.4808 23.4518 11.4808C23.1364 11.4808 22.8245 11.4938 22.5142 11.5127C22.4658 11.3455 22.4124 11.1774 22.3503 11.0073C19.0134 1.88823 9.0791 2.71973 9.0791 2.71973V22.1316V25.0658V45.9011C9.0791 57.1637 18.7388 66.2941 30.6543 66.2941H33.9658H39.0345H42.3457C54.2612 66.2941 63.9209 57.164 63.9209 45.9011V25.0658V22.1319V2.72C63.9209 2.72 53.9863 1.88823 50.6497 11.0073Z" fill="#999999"/>
    <path d="M45.7593 15.3258C41.6539 15.3258 38.1174 17.6198 36.5 20.9245C34.8826 17.6198 31.3461 15.3258 27.2407 15.3258C21.6077 15.3258 17.0415 19.6421 17.0415 24.9661C17.0415 30.2904 21.608 34.6065 27.2407 34.6065C31.3461 34.6065 34.8826 32.3125 36.5 29.0077C38.1174 32.3125 41.6539 34.6065 45.7593 34.6065C51.3923 34.6065 55.9585 30.2902 55.9585 24.9661C55.9585 19.6418 51.3923 15.3258 45.7593 15.3258Z" fill="#EAEAEA"/>
    <path d="M34.9026 66.2937H30.6543C18.7396 66.2937 9.0791 57.1628 9.0791 45.9007V2.71936C9.0791 2.71936 10.9426 2.56411 13.3274 3.12905V45.9012C13.3276 57.1628 22.9879 66.2937 34.9026 66.2937Z" fill="#999999"/>
    <path d="M29.3631 34.3981C28.6804 34.5347 27.9698 34.6069 27.2418 34.6069C21.6089 34.6069 17.0406 30.2918 17.0406 24.9672C17.0406 19.6428 21.6089 15.325 27.2418 15.325C27.9695 15.325 28.6804 15.3972 29.3631 15.5338C24.7496 16.4599 21.2886 20.331 21.2886 24.9674C21.2886 29.6039 24.7496 33.4717 29.3631 34.3981Z" fill="#EAEAEA"/>
    <path d="M63.9206 2.71925V45.9009C63.9206 57.1627 54.2604 66.2939 42.3454 66.2939H38.0972C50.0118 66.2939 59.6724 57.1629 59.6724 45.9009V3.12867C62.0571 2.564 63.9206 2.71925 63.9206 2.71925Z" fill="#999999"/>
    <path d="M55.9597 24.9672C55.9597 30.2915 51.3915 34.607 45.7585 34.607C45.0308 34.607 44.3199 34.5347 43.6372 34.3981C48.2508 33.472 51.7117 29.6037 51.7117 24.9672C51.7117 20.3307 48.2508 16.46 43.6372 15.5336C44.3199 15.3969 45.0305 15.3247 45.7585 15.3247C51.3915 15.325 55.9597 19.6429 55.9597 24.9672Z" fill="#EAEAEA"/>
    <path d="M64.0216 1.64603C63.9143 1.63686 53.3436 0.86789 49.6665 10.4031C44.4097 10.3511 39.3844 12.91 36.5 17.139C33.6239 12.9221 28.6049 10.3505 23.3338 10.4031C19.6564 0.86735 9.08652 1.63686 8.97844 1.64603C8.38988 1.69535 7.93848 2.16137 7.93848 2.71984C7.93848 5.82268 7.93848 22.7843 7.93848 25.0656V45.9012C7.93848 57.7403 18.1288 67.3723 30.6543 67.3723H42.3457C54.8715 67.3723 65.0615 57.7403 65.0615 45.9012V25.0659C65.0615 22.7827 65.0615 5.82214 65.0615 2.72011C65.0615 2.16164 64.6101 1.69535 64.0216 1.64603ZM50.4122 12.5887C51.4613 12.6478 51.6144 11.6696 51.7273 11.3607C51.7273 11.3605 51.7276 11.3602 51.7276 11.3599C54.1472 4.74671 60.3065 3.86157 62.7803 3.78098C62.7803 9.80339 62.7803 18.8604 62.7803 25.0659C62.7803 31.9621 56.8445 37.5729 49.5482 37.5729C46.4745 37.5729 43.5525 36.5517 41.2379 34.7868C42.642 35.3668 44.177 35.6846 45.7596 35.6846C52.0125 35.6846 57.0994 30.8764 57.0994 24.9661C57.0994 19.0559 52.0122 14.2474 45.7596 14.2474C44.398 14.2474 43.072 14.483 41.8338 14.9172C44.2888 13.2512 47.2832 12.3976 50.4122 12.5887ZM35.4649 21.3771C35.8721 22.2091 37.1276 22.2096 37.5354 21.3771C39.0139 18.3562 42.2422 16.4039 45.7596 16.4039C50.7547 16.4039 54.8181 20.245 54.8181 24.9664C54.8181 29.6878 50.7547 33.5286 45.7596 33.5286C42.2422 33.5286 39.0139 31.5767 37.5351 28.5555C37.1279 27.7232 35.8721 27.7229 35.4649 28.5555C33.9864 31.5764 30.7581 33.5286 27.2407 33.5286C22.2456 33.5286 18.1821 29.6878 18.1821 24.9664C18.1821 20.245 22.2456 16.4037 27.2407 16.4037C30.7581 16.4037 33.9864 18.3559 35.4649 21.3771ZM10.2197 3.78961C15.9012 4.01817 20.0933 7.25659 21.4144 11.7985C21.5578 12.2914 22.0491 12.6197 22.5878 12.5887C25.789 12.3933 28.7728 13.293 31.1667 14.9177C29.9286 14.4833 28.6023 14.2477 27.2407 14.2477C20.9878 14.2477 15.9009 19.0561 15.9009 24.9664C15.9009 30.8767 20.9878 35.6849 27.2407 35.6849C28.8236 35.6849 30.3583 35.3668 31.7624 34.787C29.4478 36.5519 26.5258 37.5732 23.4518 37.5732C16.1558 37.5732 10.2197 31.9626 10.2197 25.0661C10.2197 18.8586 10.2197 9.79665 10.2197 3.78961ZM62.7803 45.9012C62.7803 56.5514 53.6134 65.216 42.3457 65.216H30.6543C19.3866 65.216 10.2197 56.5514 10.2197 45.9012V32.7111C12.9498 36.9172 17.8593 39.7292 23.4518 39.7292C28.7534 39.7292 33.6713 37.1401 36.5 32.9928C39.3288 37.1401 44.2466 39.7292 49.5482 39.7292C55.1407 39.7292 60.0502 36.9172 62.7803 32.7108V45.9012Z" fill="#1E1E1E"/>
    <path d="M30.3591 26.0507C30.9929 24.6045 30.2663 22.9466 28.7364 22.3476C27.2064 21.7486 25.4524 22.4353 24.8186 23.8814C24.1849 25.3276 24.9114 26.9855 26.4414 27.5845C27.9713 28.1835 29.7254 27.4968 30.3591 26.0507Z" fill="#1E1E1E"/>
    <path d="M45.4122 27.8002C47.0682 27.8002 48.4107 26.5313 48.4107 24.9661C48.4107 23.4008 47.0682 22.132 45.4122 22.132C43.7563 22.132 42.4138 23.4008 42.4138 24.9661C42.4138 26.5313 43.7563 27.8002 45.4122 27.8002Z" fill="#1E1E1E"/>
    <path d="M26.7845 43.5684C26.7845 42.973 26.2737 42.4902 25.6438 42.4902C25.0139 42.4902 24.5032 42.973 24.5032 43.5684C24.5032 45.1694 23.125 46.4718 21.4315 46.4718C19.738 46.4718 18.3598 45.1691 18.3598 43.5684C18.3598 42.973 17.8491 42.4902 17.2192 42.4902C16.5893 42.4902 16.0786 42.973 16.0786 43.5684C16.0786 46.3583 18.4799 48.628 21.4315 48.628C24.3832 48.628 26.7845 46.3583 26.7845 43.5684Z" fill="#1E1E1E"/>
    <path d="M41.8529 43.5684C41.8529 42.973 41.3422 42.4902 40.7123 42.4902C40.0824 42.4902 39.5717 42.973 39.5717 43.5684C39.5717 45.1694 38.1938 46.4718 36.5 46.4718C34.8062 46.4718 33.4283 45.1691 33.4283 43.5684C33.4283 42.973 32.9176 42.4902 32.2877 42.4902C31.6577 42.4902 31.147 42.973 31.147 43.5684C31.147 46.3583 33.5483 48.628 36.5 48.628C39.4519 48.628 41.8529 46.3583 41.8529 43.5684Z" fill="#1E1E1E"/>
    <path d="M55.7811 42.4902C55.1512 42.4902 54.6405 42.973 54.6405 43.5684C54.6405 45.1694 53.2626 46.4718 51.5688 46.4718C49.8749 46.4718 48.4971 45.1691 48.4971 43.5684C48.4971 42.973 47.9864 42.4902 47.3564 42.4902C46.7265 42.4902 46.2158 42.973 46.2158 43.5684C46.2158 46.3583 48.6171 48.628 51.5688 48.628C54.5204 48.628 56.9217 46.3583 56.9217 43.5684C56.9217 42.973 56.411 42.4902 55.7811 42.4902Z" fill="#1E1E1E"/>
    <path d="M33.1782 53.7938C32.5483 53.7938 32.0376 54.2766 32.0376 54.8719C32.0376 56.473 30.6595 57.7753 28.9659 57.7753C27.2724 57.7753 25.8942 56.4727 25.8942 54.8719C25.8942 54.2766 25.3835 53.7938 24.7536 53.7938C24.1237 53.7938 23.613 54.2766 23.613 54.8719C23.613 57.6619 26.0143 59.9316 28.9659 59.9316C31.9176 59.9316 34.3189 57.6619 34.3189 54.8719C34.3189 54.2766 33.8082 53.7938 33.1782 53.7938Z" fill="#1E1E1E"/>
    <path d="M48.2467 53.7938C47.6168 53.7938 47.1061 54.2766 47.1061 54.8719C47.1061 56.473 45.7282 57.7753 44.0344 57.7753C42.3405 57.7753 40.9626 56.4727 40.9626 54.8719C40.9626 54.2766 40.4519 53.7938 39.822 53.7938C39.1921 53.7938 38.6814 54.2766 38.6814 54.8719C38.6814 57.6619 41.0827 59.9316 44.0344 59.9316C46.986 59.9316 49.3873 57.6619 49.3873 54.8719C49.3873 54.2766 48.8766 53.7938 48.2467 53.7938Z" fill="#1E1E1E"/>
</svg>
