<svg width="275" height="345" viewBox="0 0 275 345" fill="none" xmlns="http://www.w3.org/2000/svg">
    <path d="M205.147 49.5894C204.85 50.4793 204.597 51.3592 204.363 52.2335C202.88 52.1348 201.389 52.0671 199.881 52.0671C172.223 52.0671 148.397 68.9791 137.5 93.3438C126.603 68.9791 102.777 52.0671 75.119 52.0671C73.6112 52.0671 72.1198 52.1348 70.6365 52.2335C70.4048 51.3592 70.1498 50.4793 69.8526 49.5894C53.8995 1.87963 6.40552 6.22996 6.40552 6.22996V107.791V123.142V232.15C6.40552 291.074 52.5867 338.844 109.553 338.844H125.385H149.617H165.447C222.413 338.844 268.594 291.076 268.594 232.15V123.142V107.792V6.23137C268.594 6.23137 221.099 1.87963 205.147 49.5894Z" fill="#177E89" fill-opacity="0.5"/>
    <path d="M181.767 72.1831C162.14 72.1831 145.233 84.185 137.5 101.475C129.767 84.185 112.86 72.1831 93.2329 72.1831C66.3026 72.1831 44.4724 94.7653 44.4724 122.62C44.4724 150.476 66.304 173.057 93.2329 173.057C112.86 173.057 129.767 161.055 137.5 143.765C145.233 161.055 162.14 173.057 181.767 173.057C208.697 173.057 230.528 150.475 230.528 122.62C230.528 94.7639 208.697 72.1831 181.767 72.1831Z" fill="#FFC857"/>
    <path d="M129.863 338.841H109.553C52.5907 338.841 6.40552 291.069 6.40552 232.147V6.22742C6.40552 6.22742 15.3146 5.41517 26.7157 8.37086V232.15C26.717 291.069 72.9009 338.841 129.863 338.841Z" fill="#177E89" fill-opacity="0.5"/>
    <path d="M103.38 171.967C100.116 172.682 96.7189 173.06 93.2384 173.06C66.3082 173.06 44.4684 150.484 44.4684 122.626C44.4684 94.7697 66.3082 72.179 93.2384 72.179C96.7175 72.179 100.116 72.5569 103.38 73.2718C81.3233 78.1171 64.7772 98.3698 64.7772 122.627C64.7772 146.885 81.3233 167.121 103.38 171.967Z" fill="#FFC857" fill-opacity="0.3"/>
    <path d="M268.593 6.22724V232.148C268.593 291.069 222.409 338.842 165.446 338.842H145.136C202.098 338.842 248.283 291.07 248.283 232.148V8.36927C259.684 5.41499 268.593 6.22724 268.593 6.22724Z" fill="#177E89" fill-opacity="0.5"/>
    <path d="M230.533 122.626C230.533 150.482 208.693 173.06 181.763 173.06C178.284 173.06 174.885 172.682 171.622 171.967C193.678 167.122 210.224 146.883 210.224 122.626C210.224 98.3683 193.678 78.1171 171.622 73.2704C174.885 72.5554 178.283 72.1775 181.763 72.1775C208.693 72.1789 230.533 94.7696 230.533 122.626Z" fill="#FFC857"/>
    <path d="M269.076 0.611918C268.563 0.563973 218.026 -3.4592 200.447 46.4279C175.315 46.1557 151.29 59.5438 137.5 81.6691C123.75 59.6072 99.7548 46.1529 74.5546 46.4279C56.9737 -3.46202 6.44096 0.563973 5.92428 0.611918C3.11047 0.869977 0.952393 3.30814 0.952393 6.22998C0.952393 22.4637 0.952393 111.205 0.952393 123.14V232.15C0.952393 294.091 49.6706 344.484 109.553 344.484H165.447C225.331 344.484 274.048 294.091 274.048 232.15V123.142C274.048 111.196 274.048 22.4609 274.048 6.23139C274.048 3.30955 271.89 0.869977 269.076 0.611918ZM204.012 57.8628C209.027 58.1717 209.759 53.0542 210.299 51.4382C210.299 51.4368 210.301 51.4354 210.301 51.4339C221.868 16.8344 251.315 12.2034 263.141 11.7818C263.141 43.2903 263.141 90.6758 263.141 123.142C263.141 159.222 234.763 188.577 199.881 188.577C185.186 188.577 171.217 183.234 160.151 174C166.864 177.035 174.202 178.698 181.768 178.698C211.662 178.698 235.982 153.542 235.982 122.62C235.982 91.6981 211.661 66.5409 181.768 66.5409C175.259 66.5409 168.92 67.7734 163 70.0452C174.737 61.329 189.052 56.863 204.012 57.8628ZM132.551 103.842C134.498 108.196 140.501 108.198 142.45 103.842C149.519 88.0374 164.952 77.8236 181.768 77.8236C205.649 77.8236 225.076 97.9197 225.076 122.621C225.076 147.323 205.649 167.418 181.768 167.418C164.952 167.418 149.519 157.206 142.449 141.399C140.502 137.045 134.498 137.043 132.551 141.399C125.483 157.204 110.049 167.418 93.2329 167.418C69.3523 167.418 49.9255 147.323 49.9255 122.621C49.9255 97.9197 69.3523 77.8222 93.2329 77.8222C110.049 77.8222 125.483 88.0359 132.551 103.842ZM11.8586 11.8269C39.0207 13.0227 59.0623 29.9657 65.3783 53.7283C66.0641 56.3074 68.413 58.025 70.9882 57.8628C86.2924 56.8405 100.558 61.5476 112.003 70.048C106.083 67.7748 99.7426 66.5424 93.2329 66.5424C63.3389 66.5424 39.0193 91.6995 39.0193 122.621C39.0193 153.543 63.3389 178.699 93.2329 178.699C100.8 178.699 108.138 177.035 114.85 174.002C103.785 183.236 89.8151 188.579 75.119 188.579C40.2381 188.579 11.8586 159.225 11.8586 123.143C11.8586 90.6659 11.8586 43.255 11.8586 11.8269ZM263.141 232.15C263.141 287.871 219.316 333.203 165.447 333.203H109.553C55.684 333.203 11.8586 287.871 11.8586 232.15V163.141C24.9107 185.146 48.3823 199.858 75.119 199.858C100.465 199.858 123.976 186.313 137.5 164.614C151.024 186.313 174.535 199.858 199.881 199.858C226.618 199.858 250.089 185.146 263.141 163.139V232.15Z" fill="#084C61"/>
    <path d="M108.141 128.294C111.171 120.728 107.698 112.054 100.383 108.92C93.0688 105.786 84.6831 109.379 81.6533 116.945C78.6235 124.511 82.0969 133.185 89.4114 136.319C96.7258 139.453 105.112 135.86 108.141 128.294Z" fill="#084C61"/>
    <path d="M180.108 137.448C188.025 137.448 194.443 130.809 194.443 122.62C194.443 114.431 188.025 107.792 180.108 107.792C172.191 107.792 165.773 114.431 165.773 122.62C165.773 130.809 172.191 137.448 180.108 137.448Z" fill="#084C61"/>
    <path d="M91.0517 219.945C91.0517 216.83 88.6101 214.304 85.5986 214.304C82.5871 214.304 80.1454 216.83 80.1454 219.945C80.1454 228.321 73.5567 235.135 65.4602 235.135C57.3636 235.135 50.7749 228.32 50.7749 219.945C50.7749 216.83 48.3333 214.304 45.3218 214.304C42.3103 214.304 39.8687 216.83 39.8687 219.945C39.8687 234.541 51.3488 246.416 65.4602 246.416C79.5715 246.416 91.0517 234.541 91.0517 219.945Z" fill="#084C61"/>
    <path d="M163.091 219.945C163.091 216.83 160.65 214.304 157.638 214.304C154.627 214.304 152.185 216.83 152.185 219.945C152.185 228.321 145.598 235.135 137.5 235.135C129.402 235.135 122.815 228.32 122.815 219.945C122.815 216.83 120.373 214.304 117.362 214.304C114.35 214.304 111.908 216.83 111.908 219.945C111.908 234.541 123.389 246.416 137.5 246.416C151.613 246.416 163.091 234.541 163.091 219.945Z" fill="#084C61"/>
    <path d="M229.68 214.304C226.668 214.304 224.226 216.83 224.226 219.945C224.226 228.321 217.639 235.135 209.541 235.135C201.443 235.135 194.856 228.32 194.856 219.945C194.856 216.83 192.414 214.304 189.403 214.304C186.391 214.304 183.95 216.83 183.95 219.945C183.95 234.541 195.43 246.416 209.541 246.416C223.653 246.416 235.133 234.541 235.133 219.945C235.133 216.83 232.691 214.304 229.68 214.304Z" fill="#084C61"/>
    <path d="M121.619 273.443C118.608 273.443 116.166 275.969 116.166 279.084C116.166 287.46 109.577 294.274 101.481 294.274C93.3843 294.274 86.7955 287.459 86.7955 279.084C86.7955 275.969 84.3539 273.443 81.3424 273.443C78.3309 273.443 75.8893 275.969 75.8893 279.084C75.8893 293.68 87.3695 305.555 101.481 305.555C115.592 305.555 127.072 293.68 127.072 279.084C127.072 275.969 124.631 273.443 121.619 273.443Z" fill="#084C61"/>
    <path d="M193.659 273.443C190.648 273.443 188.206 275.969 188.206 279.084C188.206 287.46 181.618 294.274 173.521 294.274C165.423 294.274 158.835 287.459 158.835 279.084C158.835 275.969 156.394 273.443 153.382 273.443C150.371 273.443 147.929 275.969 147.929 279.084C147.929 293.68 159.409 305.555 173.521 305.555C187.632 305.555 199.112 293.68 199.112 279.084C199.112 275.969 196.67 273.443 193.659 273.443Z" fill="#084C61"/>
</svg>
