<svg width="32" height="33" viewBox="0 0 32 33" fill="none" xmlns="http://www.w3.org/2000/svg">
    <path fill-rule="evenodd" clip-rule="evenodd" d="M7.18661 13.9297L14.7628 6.35358L15.7056 7.29639L8.12942 14.8725L7.18661 13.9297Z" fill="#999999"/>
    <path fill-rule="evenodd" clip-rule="evenodd" d="M9.70065 16.4436L17.2768 8.86749L18.2196 9.8103L10.6435 17.3864L9.70065 16.4436Z" fill="#999999"/>
    <path fill-rule="evenodd" clip-rule="evenodd" d="M15.0433 21.7864L22.6194 14.2103L23.5623 15.1531L15.9861 22.7292L15.0433 21.7864Z" fill="#999999"/>
    <path fill-rule="evenodd" clip-rule="evenodd" d="M17.5573 24.3003L25.1335 16.7242L26.0763 17.667L18.5001 25.2431L17.5573 24.3003Z" fill="#999999"/>
    <path fill-rule="evenodd" clip-rule="evenodd" d="M17.5574 24.3006C14.9423 26.9157 10.7118 26.9251 8.10829 24.3216C5.50479 21.7181 5.51421 17.4876 8.12933 14.8725L7.18652 13.9297C4.04838 17.0678 4.03708 22.1445 7.16127 25.2686C10.2855 28.3928 15.3621 28.3815 18.5002 25.2434L17.5574 24.3006Z" fill="#999999"/>
    <path fill-rule="evenodd" clip-rule="evenodd" d="M22.6195 14.2102L23.5623 15.1531C26.003 12.7123 26.0118 8.76379 23.5819 6.33386C21.152 3.90393 17.2035 3.91272 14.7627 6.3535L15.7055 7.29631C17.6233 5.37856 20.7257 5.37165 22.6349 7.28088C24.5441 9.19011 24.5372 12.2925 22.6195 14.2102Z" fill="#999999"/>
    <path fill-rule="evenodd" clip-rule="evenodd" d="M9.70093 16.4441C7.95752 18.1875 7.95123 21.0079 9.6869 22.7435C11.4226 24.4792 14.2429 24.4729 15.9863 22.7295L15.0435 21.7867C13.8231 23.0071 11.8489 23.0115 10.6339 21.7965C9.41895 20.5815 9.42335 18.6073 10.6437 17.3869L9.70093 16.4441Z" fill="#999999"/>
</svg>
