<svg width="22" height="23" viewBox="0 0 22 23" fill="none" xmlns="http://www.w3.org/2000/svg">
    <path d="M11 2.2627C5.93999 2.2627 1.83333 6.36936 1.83333 11.4294C1.83333 16.4894 5.93999 20.596 11 20.596C16.06 20.596 20.1667 16.4894 20.1667 11.4294C20.1667 6.36936 16.06 2.2627 11 2.2627ZM11 5.0127C12.5217 5.0127 13.75 6.24103 13.75 7.7627C13.75 9.28436 12.5217 10.5127 11 10.5127C9.47833 10.5127 8.25 9.28436 8.25 7.7627C8.25 6.24103 9.47833 5.0127 11 5.0127ZM11 18.0294C8.70833 18.0294 6.6825 16.856 5.49999 15.0777C5.52749 13.2535 9.16666 12.2544 11 12.2544C12.8242 12.2544 16.4725 13.2535 16.5 15.0777C15.3175 16.856 13.2917 18.0294 11 18.0294Z" fill="#084C61"/>
    <circle cx="11" cy="11.4294" r="10.25" stroke="#084C61" stroke-width="1.5"/>
</svg>
