<svg width="22" height="23" viewBox="0 0 22 23" fill="none" xmlns="http://www.w3.org/2000/svg">
    <mask id="path-1-inside-1_165_5" fill="white">
        <path d="M22 11.4294C22 17.5046 17.0752 22.4294 11 22.4294C4.92491 22.4294 4.57764e-05 17.5046 4.57764e-05 11.4294C4.57764e-05 5.35431 4.92491 0.429443 11 0.429443C17.0752 0.429443 22 5.35431 22 11.4294Z"/>
    </mask>
    <path d="M6.58048 8.07069L14.3587 15.8489L15.4193 14.7882L7.64114 7.01003L6.58048 8.07069ZM7.64114 15.8489L15.4193 8.07069L14.3587 7.01003L6.58048 14.7882L7.64114 15.8489ZM20.5 11.4294C20.5 16.6761 16.2467 20.9294 11 20.9294V23.9294C17.9036 23.9294 23.5 18.333 23.5 11.4294H20.5ZM11 20.9294C5.75334 20.9294 1.50005 16.6761 1.50005 11.4294H-1.49995C-1.49995 18.333 4.09649 23.9294 11 23.9294V20.9294ZM1.50005 11.4294C1.50005 6.18274 5.75334 1.92944 11 1.92944V-1.07056C4.09649 -1.07056 -1.49995 4.52588 -1.49995 11.4294H1.50005ZM11 1.92944C16.2467 1.92944 20.5 6.18274 20.5 11.4294H23.5C23.5 4.52588 17.9036 -1.07056 11 -1.07056V1.92944Z" fill="#084C61" mask="url(#path-1-inside-1_165_5)"/>
</svg>
