<svg width="22" height="23" viewBox="0 0 22 23" fill="none" xmlns="http://www.w3.org/2000/svg">
    <path fill-rule="evenodd" clip-rule="evenodd" d="M4 1.92944H18C19.3807 1.92944 20.5 3.04873 20.5 4.42944V12.4294H16C13.7909 12.4294 12 14.2203 12 16.4294V20.9294H4C2.61929 20.9294 1.5 19.8102 1.5 18.4294V4.42944C1.5 3.04873 2.61929 1.92944 4 1.92944ZM12 22.4294H4C1.79086 22.4294 0 20.6386 0 18.4294V4.42944C0 2.2203 1.79086 0.429443 4 0.429443H18C20.2091 0.429443 22 2.2203 22 4.42944V12.4294V18.4294C22 20.6386 20.2091 22.4294 18 22.4294H12Z" fill="#084C61"/>
</svg>
