<svg width="22" height="23" viewBox="0 0 22 23" fill="none" xmlns="http://www.w3.org/2000/svg">
    <path fill-rule="evenodd" clip-rule="evenodd" d="M20.5 11.4294C20.5 16.6761 16.2467 20.9294 11 20.9294C5.75329 20.9294 1.5 16.6761 1.5 11.4294C1.5 6.18274 5.75329 1.92944 11 1.92944C16.2467 1.92944 20.5 6.18274 20.5 11.4294ZM22 11.4294C22 17.5046 17.0751 22.4294 11 22.4294C4.92487 22.4294 0 17.5046 0 11.4294C0 5.35431 4.92487 0.429443 11 0.429443C17.0751 0.429443 22 5.35431 22 11.4294ZM11 14.4294C12.6569 14.4294 14 13.0863 14 11.4294C14 9.77259 12.6569 8.42944 11 8.42944C9.34315 8.42944 8 9.77259 8 11.4294C8 13.0863 9.34315 14.4294 11 14.4294Z" fill="#084C61"/>
</svg>
