<svg width="22" height="23" viewBox="0 0 22 23" fill="none" xmlns="http://www.w3.org/2000/svg">
    <path fill-rule="evenodd" clip-rule="evenodd" d="M4 1.92944H18C19.3807 1.92944 20.5 3.04873 20.5 4.42944V14.4294L14.5194 12.8346C13.5108 12.5657 12.4714 12.4294 11.4275 12.4294H10.5725C9.52864 12.4294 8.48921 12.5657 7.48057 12.8346L1.5 14.4294V4.42944C1.5 3.04873 2.61929 1.92944 4 1.92944ZM0 4.42944C0 2.2203 1.79086 0.429443 4 0.429443H18C20.2091 0.429443 22 2.2203 22 4.42944V18.4294C22 20.6386 20.2091 22.4294 18 22.4294H4C1.79086 22.4294 0 20.6386 0 18.4294V4.42944ZM8 6.42944C8 7.53401 7.10457 8.42944 6 8.42944C4.89543 8.42944 4 7.53401 4 6.42944C4 5.32487 4.89543 4.42944 6 4.42944C7.10457 4.42944 8 5.32487 8 6.42944Z" fill="#084C61"/>
</svg>
